<?xml version="1.0" encoding="UTF-8" standalone="no"?>
<svg xmlns:svg="http://www.w3.org/2000/svg" xmlns="http://www.w3.org/2000/svg" version="1.2" width="1052.36" height="590.09003">
  <path d="m 119.4207,543.01679 h 29.16277 V 43.052497 H 119.4207 V 543.01679 z m 60.27256,0 h 89.42926 V 43.052497 H 179.69326 V 543.01679 z M 298.29136,43.052497 V 542.99895 h 89.42926 V 43.052497 h -89.42926 z" style="fill:#990000" />
  <path d="m 838.97933,543.0524 h 29.16883 V 43.052437 H 838.97933 V 543.0524 z M 899.25795,43.052437 V 543.0524 h 29.16277 V 43.052437 H 899.25795 z M 417.85387,543.05247 h 29.16277 V 43.052497 H 417.85387 V 543.05247 z M 478.13249,43.052497 V 543.03463 h 29.16884 V 43.052497 h -29.16884 z" style="fill:#339966" />
  <path d="m 537.42244,543.05247 h 89.4414 V 43.052497 h -89.4414 V 543.05247 z m 118.5981,0 h 31.10372 V 43.052497 H 656.02054 V 543.05247 z M 716.2931,43.052497 V 543.03463 h 89.42926 V 43.052497 H 716.2931 z" style="fill:#006699" />
</svg>
